<svg xmlns="http://www.w3.org/2000/svg" width="309.576" height="101.854" viewBox="0 0 309.576 101.854">
  <g id="Layer_2" data-name="Layer 2" transform="translate(75 177.03)">
    <g id="Layer_1" data-name="Layer 1" transform="translate(-75 -177.03)">
      <path id="Path_1" data-name="Path 1" d="M370.37,8.379A32.151,32.151,0,0,1,383.461,1.49,38.679,38.679,0,0,1,432.2,31.42c1.661,8.469.44,16.785-2.194,24.895-4.075,12.524-11.47,22.987-20.48,32.417A116.159,116.159,0,0,1,395.3,101.356a1.376,1.376,0,0,1-2.1-.04c-7.182-6.189-11.844-13.658-11.7-23.448.093-6.715,2.821-12.484,7-17.626a34.292,34.292,0,0,1,4.975-5.022q6,9.5,12,18.859c.527.807.667,2.487,2.334,1.881a4.141,4.141,0,0,0,2.534-4.221,112.707,112.707,0,0,0-3.074-11.424q-1.821-6.042-3.815-12a1.727,1.727,0,0,1,.54-2.141c2.794-2.567,5.588-5.148,8.269-7.836C415.591,35,416.518,31,415.451,26.418a2.581,2.581,0,0,1-.587-1.087c-1.834-6.982-6.422-11.777-12.431-15.338A34.331,34.331,0,0,0,384.128,5a27.622,27.622,0,0,0-11.3,2.628C372.057,7.993,371.33,8.593,370.37,8.379Z" transform="translate(-123.378 0.03)" fill="#f6931d"/>
      <path id="Path_2" data-name="Path 2" d="M406.122,29.246A13.1,13.1,0,0,0,394.838,34.1c-2.061,2.341-4.295,4.528-6.375,6.849a1.907,1.907,0,0,1-2.374.667c-7.209-2.334-14.418-4.668-21.76-6.555-2.174-.56-3.961-.42-5.4,1.5-.787,1.054-.78,1.727.433,2.481,6.255,3.908,12.471,7.883,18.673,11.837.387.247.76.5,1.22.807a8.089,8.089,0,0,1-.967.88c-6.089,4-12.751,6.115-20.04,5.535-6.209-.493-8.856-3.074-9.736-9.143-1.654-11.484.667-22.007,7.969-31.23a21.72,21.72,0,0,1,4.561-4.668c7.629-4.568,15.558-4.421,23.634-1.5,8.129,2.934,14.671,7.909,18.759,15.772a2,2,0,0,0,1.781,1.287C405.595,28.639,406.1,28.639,406.122,29.246Z" transform="translate(-115.929 -3.138)" fill="#22aefb"/>
      <path id="Path_3" data-name="Path 3" d="M412.644,28.376c-2.221.14-2.828-1.52-3.768-3.074-5.188-8.549-13-13.424-22.6-15.592a26.008,26.008,0,0,0-17.8,2.234,4.667,4.667,0,0,1-.887.247l1.854-1.52a28.009,28.009,0,0,1,15.5-3.768c10.163.607,18.793,4.448,25.341,12.431a18.253,18.253,0,0,1,4.235,9.336Z" transform="translate(-122.451 -2.267)" fill="#21a6ef"/>
      <text id="معالم_للسياحة" data-name="معالم للسياحة" transform="translate(0 39.314)" fill="#f6931d" font-size="33" font-family="SegoeUI-Bold, Segoe UI" font-weight="700"><tspan x="0" y="0">معالم للسياحة</tspan></text>
      <text id="معالم_للسياحة_والحجز" data-name="معالم للسياحة والحجز" transform="translate(11.337 75.918)" fill="#5a5a5a" font-size="20" font-family="SegoeUI, Segoe UI"><tspan x="0" y="0">معالم للسياحة والحجز</tspan></text>
    </g>
  </g>
</svg>
