<svg xmlns="http://www.w3.org/2000/svg" xmlns:xlink="http://www.w3.org/1999/xlink" width="104" height="30" viewBox="0 0 104 30">
  <defs>
    <clipPath id="clip-path">
      <rect id="Rectangle_2552" data-name="Rectangle 2552" width="104" height="30" transform="translate(98 4075)" fill="#fff" stroke="#707070" stroke-width="1"/>
    </clipPath>
  </defs>
  <g id="Mask_Group_146" data-name="Mask Group 146" transform="translate(-98 -4075)" clip-path="url(#clip-path)">
    <g id="logo" transform="translate(-1016.564 4040.001)">
      <g id="Group_67774" data-name="Group 67774" transform="translate(1151.475 41.174)">
        <text id="smArt" transform="translate(0 7)" fill="#fff" font-size="12" font-family="SegoeUI, Segoe UI"><tspan x="0" y="0">smArt</tspan></text>
        <text id="vision" transform="translate(34 7)" fill="#fff" font-size="12" font-family="SegoeUI, Segoe UI"><tspan x="0" y="0">vision</tspan></text>
        <text id="تصميم_مواقع_-_تطبيقات" data-name="تصميم مواقع - تطبيقات" transform="translate(0 18.565)" fill="#fff" font-size="6" font-family="SegoeUI-Bold, Segoe UI" font-weight="700"><tspan x="0" y="0">تصميم مواقع - تطبيقات</tspan></text>
      </g>
      <path id="Path_24113" data-name="Path 24113" d="M15,30a15,15,0,1,1,10.607-4.393A15,15,0,0,1,15,30ZM6.4,7.6v8.258A6.843,6.843,0,0,0,7.55,19.7c1.877,2.732,5.218,2.944,6.2,2.944.124,0,.218,0,.262-.006h.541a8.112,8.112,0,0,1-5.53-3.3,6.1,6.1,0,0,1-1.149-3.461v-6.9H12.3a6.243,6.243,0,0,1,3.031.787,4.9,4.9,0,0,1,2.6,4.032v3.448l1.434,1.447V13.8A6.43,6.43,0,0,0,19,11.786a6.043,6.043,0,0,0-2.813-3.367,6.688,6.688,0,0,0-3.2-.818H6.4Zm4.356,3.963v4.886a6.409,6.409,0,0,0,.366,2.011,6.044,6.044,0,0,0,2.814,3.364,6.668,6.668,0,0,0,3.194.818h6.58V14.126a5.82,5.82,0,0,0-.339-1.959,6.777,6.777,0,0,0-2.163-3.093A8.541,8.541,0,0,0,15.839,7.6H15.56l.132.047c2.75.895,5.056,2.49,5.874,4.064a4.759,4.759,0,0,1,.612,2.509v7.045H17.811a6.254,6.254,0,0,1-2.768-.649,4.938,4.938,0,0,1-2.672-3.138,5.339,5.339,0,0,1-.181-1.384V13.008Z" transform="translate(1115.566 35)" fill="#fff"/>
    </g>
  </g>
</svg>
